<svg width="31" height="27" viewBox="0 0 31 27" fill="red" xmlns="http://www.w3.org/2000/svg">
<path d="M26.042 -0.000244141H9.45386C7.11743 -0.000244141 5.24841 1.90222 5.24841 4.20521V9.54546H3.27917C1.5769 9.57884 0.208496 10.9473 0.208496 12.6495V19.8255C0.208496 21.5277 1.5769 22.8961 3.27917 22.8961H3.37927L3.07886 26.5675L9.25354 22.8961H14.3268C16.0291 22.8961 17.3975 21.5277 17.3975 19.8255V19.3582L25.9086 24.4314L25.4746 19.2581H26.042C28.3784 19.2581 30.2474 17.3556 30.2474 15.0526V4.20521C30.2474 1.90222 28.345 -0.000244141 26.042 -0.000244141ZM15.7954 19.8255C15.7954 20.6599 15.1278 21.3274 14.2935 21.3274H8.8197L4.88123 23.6638L5.08154 21.3274H3.27917C2.4447 21.3274 1.77722 20.6599 1.77722 19.8255V12.6495C1.77722 11.8151 2.4447 11.1475 3.27917 11.1475H14.3268C15.1613 11.1475 15.8287 11.8151 15.8287 12.6495V19.8255H15.7954ZM28.6787 15.0192C28.6787 16.4878 27.4772 17.656 26.042 17.656H23.7723L24.1062 21.4943L17.5978 17.6894H17.3641V12.6495C17.3641 10.9473 15.9956 9.57884 14.2935 9.57884H6.81714V4.23859C6.81714 2.77001 8.01868 1.60183 9.45386 1.60183H26.042C27.5106 1.60183 28.6787 2.80339 28.6787 4.23859V15.0192Z"/>
</svg>
